<?xml version="1.0" encoding="UTF-8" ?>
<!DOCTYPE svg PUBLIC "-//W3C//DTD SVG 1.1//EN" "http://www.w3.org/Graphics/SVG/1.1/DTD/svg11.dtd">
<svg width="30pt" height="30pt" viewBox="0 0 30 30" version="1.1" xmlns="http://www.w3.org/2000/svg">
<path fill="#ffffff" d=" M 0.00 0.00 L 30.00 0.00 L 30.00 30.00 L 0.00 30.00 L 0.00 0.00 Z" />
<path fill="#ff2703" d=" M 11.12 2.70 C 13.54 0.20 17.30 0.39 19.83 2.61 C 16.93 2.71 14.02 2.73 11.12 2.70 Z" />
<path fill="#ff2703" d=" M 4.01 8.36 C 4.83 5.90 6.69 4.19 9.11 3.35 C 9.12 5.01 9.14 6.66 9.14 8.32 C 7.43 8.35 5.72 8.36 4.01 8.36 Z" />
<path fill="#ff2703" d=" M 10.19 8.33 C 11.10 6.16 12.54 4.06 15.03 3.63 C 17.89 3.45 19.73 6.00 20.78 8.32 C 17.25 8.36 13.72 8.36 10.19 8.33 Z" />
<path fill="#ff2703" d=" M 21.85 3.32 C 24.22 4.23 26.11 5.90 26.92 8.35 C 25.22 8.36 23.52 8.36 21.82 8.34 C 21.82 6.67 21.83 4.99 21.85 3.32 Z" />
<path fill="#ff2703" d=" M 4.46 15.06 C 3.89 12.14 6.54 10.56 8.82 9.65 C 8.84 13.04 8.79 16.43 9.01 19.81 C 6.69 19.26 4.06 17.89 4.46 15.06 Z" />
<path fill="#ff2703" d=" M 13.36 10.43 C 15.53 9.72 18.45 10.14 19.54 12.39 C 21.73 15.44 18.73 20.20 15.03 19.55 C 10.13 19.87 8.75 11.82 13.36 10.43 Z" />
<path fill="#ff2703" d=" M 21.81 9.46 C 24.02 10.51 26.64 12.09 26.42 14.93 C 26.62 17.67 23.91 19.09 21.78 19.97 C 21.76 16.47 21.76 12.96 21.81 9.46 Z" />
<path fill="#ff2703" d=" M 2.43 10.53 C 3.67 13.27 3.36 16.31 3.15 19.21 C 0.42 16.88 0.74 13.36 2.43 10.53 Z" />
<path fill="#ff2703" d=" M 27.61 10.47 C 29.58 12.46 28.97 15.38 29.13 17.90 C 28.70 18.15 27.83 18.65 27.40 18.90 C 27.51 16.09 27.50 13.28 27.61 10.47 Z" />
<path fill="#ff2703" d=" M 4.01 21.35 C 9.65 21.31 15.30 21.18 20.93 21.57 C 19.56 23.59 17.93 26.26 15.04 25.66 C 12.75 26.20 12.11 22.99 10.11 23.14 C 9.76 23.83 9.06 25.21 8.70 25.90 C 6.24 25.50 4.92 23.48 4.01 21.35 Z" />
<path fill="#ff2703" d=" M 21.75 21.32 C 23.48 21.31 25.21 21.33 26.94 21.36 C 26.05 23.71 24.24 25.34 21.98 26.31 C 21.89 24.64 21.81 22.98 21.75 21.32 Z" />
<path fill="#ff2703" d=" M 10.95 27.40 C 13.92 27.40 16.88 27.42 19.85 27.45 C 17.34 29.99 13.50 29.73 10.95 27.40 Z" />
</svg>
