<?xml version="1.0" encoding="utf-8"?>
<!-- Generator: Adobe Illustrator 18.1.0, SVG Export Plug-In . SVG Version: 6.00 Build 0)  -->
<svg version="1.0" id="Layer_1" xmlns="http://www.w3.org/2000/svg" xmlns:xlink="http://www.w3.org/1999/xlink" x="0px" y="0px"
	 viewBox="0 0 180 180" enable-background="new 0 0 180 180" xml:space="preserve">
<g>
	<path fill="#594A42" d="M90.2,111.8c-15.5-21-6.6-46.4-6.6-46.4S65.7,93,81.8,115.1c16.1,22.1-1.6,45.3-1.6,45.3
		S105.6,132.8,90.2,111.8z"/>
	<g>
		<path fill="#BED73B" d="M75.7,95.2c16-18.5-32.8-38.8-37.9-32.9C32.7,68.1,59.6,113.6,75.7,95.2z"/>
		<path fill="#FFFFFF" d="M61.7,81.5C51.4,68.5,44,69.2,44,69.2s7.1,0.5,16,14.5c4.9,7.7,10.6,11,14.8,12.5c0.3-0.3,0.6-0.6,0.9-0.9
			c0.8-0.9,1.5-1.9,1.9-2.8C73.3,91.4,67.3,88.7,61.7,81.5z"/>
	</g>
	<g>
		<path fill="#8DC63F" d="M79.4,93.5c35.5-1,9.1-73.1-2.1-72.8C66.1,21.1,44,94.6,79.4,93.5z"/>
		<path fill="#FFFFFF" d="M80.2,65.2C84,41.4,76,34.3,76,34.3s6.5,8.1,0.3,31.3c-3.4,12.8-1.3,22.2,1.2,28c0.6,0,1.2,0,1.9,0
			c1.8-0.1,3.4-0.3,4.9-0.7C81.2,87.3,78.1,78.3,80.2,65.2z"/>
	</g>
	<g>
		<path fill="#6E9F31" d="M84.2,98.3c33.7,25,62-61.3,51.4-69.2C124.9,21.3,50.5,73.3,84.2,98.3z"/>
		<path fill="#FFFFFF" d="M105.7,72.6c20.9-19.3,18.8-31.8,18.8-31.8S124.6,53,101.8,70c-12.6,9.4-17.5,19.6-19.4,26.9
			c0.5,0.5,1.1,1,1.7,1.4c1.7,1.3,3.4,2.2,5.1,3C90.3,93.9,94.2,83.2,105.7,72.6z"/>
	</g>
</g>
</svg>
